<svg width="64" height="64" viewBox="0 0 64 64" fill="none" xmlns="http://www.w3.org/2000/svg">
<g filter="url(#filter0_d_5510_19958)">
<path d="M10 28C10 15.8497 19.8497 6 32 6C44.1503 6 54 15.8497 54 28C54 40.1503 44.1503 50 32 50C19.8497 50 10 40.1503 10 28Z" fill="white"/>
<path d="M10.5 28C10.5 16.1259 20.1259 6.5 32 6.5C43.8741 6.5 53.5 16.1259 53.5 28C53.5 39.8741 43.8741 49.5 32 49.5C20.1259 49.5 10.5 39.8741 10.5 28Z" stroke="#D4009B"/>
<path d="M25.3203 28L32 21.3203L38.6797 28L37.4688 29.1719L32.8203 24.5234V34.6797H31.1797V24.5234L26.4922 29.1719L25.3203 28Z" fill="#D4009B"/>
</g>
<defs>
<filter id="filter0_d_5510_19958" x="0" y="0" width="64" height="64" filterUnits="userSpaceOnUse" color-interpolation-filters="sRGB">
<feFlood flood-opacity="0" result="BackgroundImageFix"/>
<feColorMatrix in="SourceAlpha" type="matrix" values="0 0 0 0 0 0 0 0 0 0 0 0 0 0 0 0 0 0 127 0" result="hardAlpha"/>
<feOffset dy="4"/>
<feGaussianBlur stdDeviation="5"/>
<feColorMatrix type="matrix" values="0 0 0 0 0 0 0 0 0 0 0 0 0 0 0 0 0 0 0.12 0"/>
<feBlend mode="normal" in2="BackgroundImageFix" result="effect1_dropShadow_5510_19958"/>
<feBlend mode="normal" in="SourceGraphic" in2="effect1_dropShadow_5510_19958" result="shape"/>
</filter>
</defs>
</svg>
