<svg width="22" height="16" viewBox="0 0 22 16" fill="none" xmlns="http://www.w3.org/2000/svg">
<path d="M0.244057 3.26409C0.344887 1.71178 1.59293 0.49523 3.14661 0.418256C5.39644 0.306794 8.61211 0.172363 11.035 0.172363C13.4579 0.172363 16.6736 0.306794 18.9234 0.418256C20.4771 0.49523 21.7251 1.71178 21.826 3.2641C21.9226 4.75133 22.0178 6.58132 22.0178 8.01719C22.0178 9.45306 21.9226 11.2831 21.826 12.7703C21.7251 14.3226 20.4771 15.5392 18.9234 15.6161C16.6736 15.7276 13.4579 15.862 11.035 15.862C8.61211 15.862 5.39645 15.7276 3.14661 15.6161C1.59293 15.5392 0.344887 14.3226 0.244057 12.7703C0.147454 11.2831 0.0522461 9.45306 0.0522461 8.01719C0.0522461 6.58132 0.147454 4.75133 0.244057 3.26409Z" fill="#D4009B"/>
<path d="M8.68164 4.87927V11.1551L14.9575 8.0172L8.68164 4.87927Z" fill="white"/>
</svg>
